# AST/ASF file generated using VICON BodyLanguage
# -----------------------------------------------
:version 1.10
:name VICON
:units
  mass 1.0
  length 0.45
  angle deg
:documentation
   .ast/.asf automatically generated from VICON data using
   VICON BodyBuilder and BodyLanguage model FoxedUp or BRILLIANT.MOD
:root
   order TX TY TZ RX RY RZ
   axis XYZ
   position 0 0 0  
   orientation 0 0 0 
:bonedata
  begin
     id 1 
     name lhipjoint
     direction 0.584852 -0.759097 0.285867 
     length 2.43633 
     axis 0 0 0  XYZ
  end
  begin
     id 2 
     name lfemur
     direction 0.34202 -0.939693 0  
     length 7.14704  
     axis 0 0 20  XYZ
    dof rx ry rz
    limits (-160.0 20.0)
           (-70.0 70.0)
           (-60.0 70.0)
  end
  begin
     id 3 
     name ltibia
     direction 0.342022 -0.939692 0   
     length 7.68483   
     axis 0 0 20   XYZ
    dof rx
    limits (-10.0 170.0)
  end
  begin
     id 4 
     name lfoot
     direction 0.0999605 -0.274639 0.956337   
     length 2.40452   
     axis -90 7.62852e-016 20   XYZ
    dof rx rz
    limits (-45.0 90.0)
           (-70.0 20.0)
  end
  begin
     id 5 
     name ltoes
     direction 1.53468e-011 -4.21881e-011 1   
     length 1.19837   
     axis -90 7.62852e-016 20   XYZ
    dof rx
    limits (-90.0 20.0)
  end
  begin
     id 6 
     name rhipjoint
     direction -0.569886 -0.769002 0.289597   
     length 2.40495  
     axis 0 0 0  XYZ 
  end
  begin
     id 7 
     name rfemur
     direction -0.34202 -0.939693 0   
     length 7.45086   
     axis 0 0 -20   XYZ
    dof rx ry rz
    limits (-160.0 20.0)
           (-70.0 70.0)
           (-70.0 60.0)
  end
  begin
     id 8 
     name rtibia
     direction -0.34202 -0.939693 0   
     length 7.76831   
     axis 0 0 -20   XYZ
    dof rx
    limits (-10.0 170.0)
 end
 begin
     id 9 
     name rfoot
     direction -0.0798572 -0.219406 0.97236   
     length 2.35911  
     axis -90 -7.62852e-016 -20   XYZ
    dof rx rz
    limits (-45.0 90.0)
           (-20.0 70.0)
  end
  begin
     id 10 
     name rtoes
     direction -1.53469e-011 -4.21728e-011 1   
     length 1.18261   
     axis -90 -7.62852e-016 -20   XYZ
    dof rx
    limits (-90.0 20.0)
  end
  begin
     id 11 
     name lowerback
     direction 0.0242088 0.999437 0.0232389   
     length 2.1561   
     axis 0 0 0   XYZ
    dof rx ry rz
    limits (-20.0 45.0)
           (-30.0 30.0)
           (-30.0 30.0)
  end
  begin
     id 12 
     name upperback
     direction -0.0356893 0.999013 -0.0264323   
     length 2.14431   
     axis 0 0 0   XYZ
    dof rx ry rz
    limits (-20.0 45.0)
           (-30.0 30.0)
           (-30.0 30.0)
  end
  begin
     id 13 
     name thorax
     direction -0.0472163 0.998194 -0.0371284   
     length 2.16169   
     axis 0 0 0   XYZ
    dof rx ry rz
    limits (-20.0 45.0)
           (-30.0 30.0)
           (-30.0 30.0)
  end
  begin
     id 14 
     name lowerneck
     direction 0.00863244 0.999921 0.00911972   
     length 1.58651   
     axis 0 0 0   XYZ
    dof rx ry rz
    limits (-20.0 45.0)
           (-30.0 30.0)
           (-30.0 30.0)
  end
  begin
     id 15 
     name upperneck
     direction 0.149523 0.979068 -0.138086   
     length 1.57486   
     axis 0 0 0   XYZ
    dof rx ry rz
    limits (-20.0 45.0)
           (-30.0 30.0)
           (-30.0 30.0)
  end
  begin
     id 16
     name head
     direction 0.0445219 0.997708 -0.0509576  
     length 1.6019  
     axis 0 0 0   XYZ
    dof rx ry rz
    limits (-20.0 45.0)
           (-30.0 30.0)
           (-30.0 30.0)
  end
  begin
     id 17 
     name lclavicle
     direction 0.911271 0.381667 -0.154644  
     length 3.80848  
     axis 0 0 0   XYZ
    dof ry rz
    limits (-20.0 10.0)
           (0.0 20.0)
  end
  begin
     id 18 
     name lhumerus
     direction 1 -4.49003e-011 2.1308e-027   
     length 5.19069   
     axis 180 -30 -90   XYZ
    dof rx ry rz
    limits (-60.0 90.0)
           (-90.0 90.0)
           (-90.0 90.0)
  end
  begin
     id 19
     name lradius
     direction 1 -4.48914e-011 4.01554e-027   
     length 3.30016   
     axis 180 -30 -90   XYZ
    dof rx
    limits (-10.0 170.0)
  end
  begin
     id 20
     name lwrist
     direction 1 -4.49003e-011 1.1934e-026   
     length 1.65008   
     axis -8.46377e-015 90 90   XYZ
    dof ry
    limits (-180.0 0.0)
 end
  begin
     id 21 
     name lhand
     direction 1 -4.49034e-011 2.38659e-026   
     length 0.707698   
     axis -1.52313e-014 90 90   XYZ
    dof rx rz
    limits (-90.0 90.0)
           (-45.0 45.0)
  end
  begin
     id 22 
     name lfingers
     direction 1 -4.48691e-011 4.77775e-026   
     length 0.570564   
     axis -3.04623e-014 90 90   XYZ
    dof rx
    limits (0.0 90.0)
  end
  begin
     id 23
     name lthumb
     direction 0.707107 -6.34832e-011 0.707107   
     length 0.819219   
     axis -90 45 -1.62303e-014   XYZ
    dof rx rz
    limits (-45.0 45.0)
           (-45.0 45.0)
  end
  begin
     id 24 
     name rclavicle
     direction -0.815579 0.573708 -0.0754329   
     length 3.54371  
     axis 0 0 0   XYZ 
    dof ry rz
    limits (-10.0 20.0)
           (-20.0 0.0)
  end
  begin
     id 25 
     name rhumerus
     direction -1 -4.48956e-011 3.05351e-028  
     length 5.23924   
     axis 180 30 90   XYZ
    dof rx ry rz
    limits (-90.0 60.0)
           (-90.0 90.0)
           (-90.0 90.0)
  end
  begin
     id 26 
     name rradius
     direction -1 -4.49013e-011 3.53849e-027   
     length 3.32953   
     axis 180 30 90   XYZ
    dof rx
    limits (-10.0 170.0)
  end
  begin
     id 27 
     name rwrist
     direction -1 -4.48901e-011 1.19374e-026   
     length 1.66477   
     axis -8.46377e-015 -90 -90   XYZ
    dof ry
    limits (-180.0 0.0)
  end
  begin
     id 28
     name rhand
     direction -1 -4.48877e-011 2.38764e-026   
     length 0.607414   
     axis -1.52313e-014 -90 -90   XYZ
    dof rx rz
    limits (-90.0 90.0)
           (-45.0 45.0)
  end
  begin
     id 29
     name rfingers
     direction -1 -4.48882e-011 4.77521e-026   
     length 0.489712   
     axis -3.04623e-014 -90 -90   XYZ
    dof rx
    limits (0.0 90.0)
  end
  begin
     id 30
     name rthumb
     direction -0.707107 -6.34974e-011 0.707107   
     length 0.703132   
     axis -90 -45 1.62303e-014   XYZ
    dof rx rz
    limits (-45.0 45.0)
           (-45.0 45.0)
  end
:hierarchy
  begin
    root lhipjoint rhipjoint lowerback
    lhipjoint lfemur
    lfemur ltibia
    ltibia lfoot
    lfoot ltoes
    rhipjoint rfemur
    rfemur rtibia
    rtibia rfoot
    rfoot rtoes
    lowerback upperback
    upperback thorax
    thorax lowerneck lclavicle rclavicle
    lowerneck upperneck
    upperneck head
    lclavicle lhumerus
    lhumerus lradius
    lradius lwrist
    lwrist lhand lthumb
    lhand lfingers
    rclavicle rhumerus
    rhumerus rradius
    rradius rwrist
    rwrist rhand rthumb
    rhand rfingers
  end

#!OML:ASF E:\VariousWalksJay\Project 1\Capture day 1\Session 1\Actor2.ASF
:FULLY-SPECIFIED
:DEGREES
400
root 18.034 15.5985 -16.042 -1.3149 -36.3634 -9.31187
lowerback 1.26665 -2.61019 9.25848
upperback 11.3852 -4.20187 -0.169152
thorax 10.9561 -1.24984 -5.67369
lowerneck 4.60628 0.206627 0.0266333
upperneck 24.2406 -0.449086 1.05766
head 6.63659 -0.335467 0.296442
rclavicle -3.20043e-014 -1.59028e-014
rhumerus -33.5813 26.2572 -88.6589
rradius 72.4102
rwrist 4.5223
rhand -23.0421 -9.68821
rfingers 7.12502
rthumb 3.40243 -39.6408
lclavicle -3.20043e-014 -1.59028e-014
lhumerus 15.1746 -23.0539 70.7179
lradius 62.0878
lwrist 66.8141
lhand -36.5788 15.0547
lfingers 7.12502
lthumb -9.66825 44.8128
rfemur -10.2881 -7.92878 36.5046
rtibia 61.7232
rfoot -37.6528 -14.5857
rtoes -17.9667
lfemur -49.4671 7.06898 -16.7326
ltibia 53.0098
lfoot -22.0508 2.93597
ltoes -24.5508
401
root 17.9745 15.6128 -15.9625 -1.12477 -36.3014 -9.48752
lowerback 0.90893 -2.62987 9.37284
upperback 11.162 -4.25904 -0.0882328
thorax 10.9024 -1.27686 -5.66608
lowerneck 4.31197 0.205241 0.105978
upperneck 24.9051 -0.463054 0.965628
head 6.90512 -0.345489 0.251288
rclavicle -6.87795e-014 5.48646e-014
rhumerus -33.9051 26.1603 -88.7831
rradius 72.3502
rwrist 4.54522
rhand -23.0254 -9.65523
rfingers 7.12502
rthumb 3.41859 -39.6076
lclavicle -6.87795e-014 5.48646e-014
lhumerus 14.6013 -23.1285 70.9896
lradius 62.0672
lwrist 66.7718
lhand -36.5395 15.0997
lfingers 7.12502
lthumb -9.63037 44.8596
rfemur -9.80367 -8.50288 36.3918
rtibia 61.3544
rfoot -37.5183 -14.0459
rtoes -18.6337
lfemur -48.672 7.10514 -16.8532
ltibia 50.3945
lfoot -22.1203 3.29285
ltoes -24.3861
402
root 17.9145 15.6281 -15.8824 -0.894676 -36.2511 -9.66414
lowerback 0.551163 -2.64328 9.47887
upperback 10.9243 -4.30697 -0.0045696
thorax 10.8344 -1.3016 -5.65017
lowerneck 4.01336 0.202399 0.18134
upperneck 25.5607 -0.478256 0.871565
head 7.17391 -0.356703 0.205567
rclavicle 5.54609e-014 -1.94809e-014
rhumerus -34.2558 26.0481 -88.9139
rradius 72.3143
rwrist 4.55016
rhand -23.0116 -9.62428
rfingers 7.12502
rthumb 3.43193 -39.5764
lclavicle 5.54609e-014 -1.94809e-014
lhumerus 14.0153 -23.2002 71.2624
lradius 62.0535
lwrist 66.7205
lhand -36.4764 15.1801
lfingers 7.12502
lthumb -9.56946 44.9428
rfemur -9.3444 -9.02942 36.2934
rtibia 60.961
rfoot -37.3899 -13.5317
rtoes -19.2327
lfemur -47.9 7.13189 -16.9499
ltibia 47.7701
lfoot -22.1842 3.62259
ltoes -24.1835
403
root 17.8544 15.6442 -15.8019 -0.623782 -36.2138 -9.83948
lowerback 0.181493 -2.66237 9.58052
upperback 10.675 -4.36321 0.0767548
thorax 10.7592 -1.33148 -5.63568
lowerneck 3.71269 0.212953 0.235961
upperneck 26.2054 -0.474371 0.77782
head 7.44185 -0.361024 0.163899
rclavicle -9.24349e-015 -2.94201e-014
rhumerus -34.6231 25.9571 -89.0627
rradius 72.2957
rwrist 4.54227
rhand -22.9934 -9.59772
rfingers 7.12502
rthumb 3.44946 -39.5496
lclavicle -9.24349e-015 -2.94201e-014
lhumerus 13.3986 -23.2376 71.5305
lradius 62.0558
lwrist 66.6575
lhand -36.4483 15.1909
lfingers 7.12502
lthumb -9.54234 44.9548
rfemur -8.9145 -9.5058 36.2057
rtibia 60.5513
rfoot -37.2722 -13.0202
rtoes -19.7359
lfemur -47.1588 7.13787 -17.0185
ltibia 45.1559
lfoot -22.2398 3.93658
ltoes -23.9514
404
root 17.7941 15.6604 -15.7215 -0.315686 -36.1894 -10.0029
lowerback -0.176711 -2.67321 9.66107
upperback 10.4076 -4.40455 0.157528
thorax 10.6598 -1.35797 -5.60809
lowerneck 3.40541 0.221739 0.292355
upperneck 26.8409 -0.472696 0.685752
head 7.71047 -0.3663 0.121908
rclavicle 4.50247e-014 -3.57812e-014
rhumerus -35.0137 25.844 -89.2197
rradius 72.2907
rwrist 4.53419
rhand -22.9773 -9.56981
rfingers 7.12502
rthumb 3.46499 -39.5214
lclavicle 4.50247e-014 -3.57812e-014
lhumerus 12.7677 -23.2851 71.7977
lradius 62.0731
lwrist 66.5918
lhand -36.4675 15.0816
lfingers 7.12502
lthumb -9.56089 44.8447
rfemur -8.52725 -9.93286 36.125
rtibia 60.1359
rfoot -37.1528 -12.5407
rtoes -20.2335
lfemur -46.4635 7.12943 -17.0691
ltibia 42.5788
lfoot -22.2819 4.2367
ltoes -23.6979
405
root 17.7339 15.6769 -15.6409 0.0240491 -36.177 -10.1474
lowerback -0.515272 -2.70607 9.68924
upperback 10.11 -4.46929 0.256931
thorax 10.5134 -1.40538 -5.5308
lowerneck 3.11791 0.257921 0.294835
upperneck 27.4662 -0.42726 0.576804
head 7.97476 -0.358284 0.0855487
rclavicle -4.84041e-014 5.96354e-015
rhumerus -35.4499 25.8223 -89.3791
rradius 72.304
rwrist 4.52299
rhand -22.961 -9.54537
rfingers 7.12502
rthumb 3.48075 -39.4967
lclavicle -4.84041e-014 5.96354e-015
lhumerus 12.0479 -23.238 72.1195
lradius 62.102
lwrist 66.5021
lhand -36.4665 15.0222
lfingers 7.12502
lthumb -9.55988 44.7853
rfemur -8.18437 -10.3145 36.0397
rtibia 59.7253
rfoot -37.0334 -12.0736
rtoes -20.7259
lfemur -45.8186 7.09102 -17.1059
ltibia 40.0653
lfoot -22.3009 4.55986
ltoes -23.4841
406
root 17.6743 15.6934 -15.5594 0.38489 -36.1874 -10.27
lowerback -0.830731 -2.73123 9.69576
upperback 9.79748 -4.51838 0.357048
thorax 10.3407 -1.44898 -5.43811
lowerneck 2.82681 0.292947 0.298641
upperneck 28.0667 -0.379031 0.45893
head 8.23387 -0.350024 0.0458745
rclavicle 1.47101e-014 -3.37934e-014
rhumerus -35.9076 25.7946 -89.5353
rradius 72.3264
rwrist 4.52415
rhand -22.9462 -9.53385
rfingers 7.12502
rthumb 3.49504 -39.4849
lclavicle 1.47101e-014 -3.37934e-014
lhumerus 11.3177 -23.1882 72.449
lradius 62.1373
lwrist 66.4223
lhand -36.4899 14.9043
lfingers 7.12502
lthumb -9.58253 44.6664
rfemur -7.87986 -10.6502 35.9375
rtibia 59.3283
rfoot -36.9119 -11.6052
rtoes -21.2247
lfemur -45.22 7.03243 -17.1341
ltibia 37.6453
lfoot -22.2962 4.91564
ltoes -23.2975
